<?xml version="1.0" standalone="no"?>
<!DOCTYPE svg PUBLIC "-//W3C//DTD SVG 20010904//EN"
 "http://www.w3.org/TR/2001/REC-SVG-20010904/DTD/svg10.dtd">
<svg version="1.0" xmlns="http://www.w3.org/2000/svg"
 width="1024.000000pt" height="1024.000000pt" viewBox="0 0 1024.000000 1024.000000"
 preserveAspectRatio="xMidYMid meet">
<metadata>
Created by potrace 1.14, written by Peter Selinger 2001-2017
</metadata>
<g transform="translate(0.000000,1024.000000) scale(0.100000,-0.100000)"
fill="#000000" stroke="none">
<path d="M5561 7173 c-54 -28 -73 -62 -80 -142 -4 -39 -12 -76 -19 -83 -10
-10 -88 -14 -300 -18 -284 -5 -288 -5 -343 -31 -108 -51 -169 -137 -177 -252
-9 -120 39 -194 132 -204 77 -9 138 41 150 121 12 76 6 74 321 78 318 4 330 6
421 90 70 64 96 125 101 233 4 80 2 95 -19 134 -13 25 -35 53 -49 64 -38 27
-97 32 -138 10z"/>
<path d="M6644 6550 c-21 -7 -117 -97 -300 -282 -148 -149 -306 -309 -351
-355 l-83 -83 -1142 -2 -1143 -3 -47 -27 c-197 -116 -345 -566 -325 -989 18
-376 174 -750 437 -1048 142 -160 342 -312 548 -417 l107 -54 -295 0 c-329 0
-343 -2 -387 -69 -42 -63 -21 -152 47 -198 l33 -23 1574 0 c1323 0 1579 2
1607 14 86 36 119 155 60 217 -56 60 -41 59 -666 59 l-573 0 115 58 c188 93
335 198 484 348 101 101 229 283 296 422 l35 72 105 0 c138 0 225 20 335 74
260 129 414 369 415 647 0 312 -205 586 -510 681 -64 20 -96 23 -221 23 l-147
0 -22 41 c-28 54 -94 121 -145 147 -22 11 -66 23 -97 26 l-58 6 228 234 c266
273 286 299 278 356 -15 93 -104 151 -192 125z m-276 -1024 c35 -30 82 -118
110 -206 88 -272 89 -587 5 -855 -127 -402 -449 -749 -847 -911 -110 -45 -280
-88 -410 -105 -147 -18 -383 -7 -511 25 -632 156 -1052 587 -1166 1196 -19 99
-16 356 5 474 32 176 93 335 147 381 l31 25 1303 0 1303 0 30 -24z m544 -207
c217 -46 363 -251 330 -462 -15 -100 -60 -183 -136 -255 -85 -79 -159 -114
-255 -120 l-74 -5 7 34 c54 249 57 479 10 694 -8 39 -17 82 -21 98 -5 26 -4
27 40 27 25 0 70 -5 99 -11z"/>
<path d="M4810 5180 c-229 -31 -416 -177 -497 -388 -35 -90 -44 -260 -18 -347
39 -136 116 -234 223 -287 60 -30 76 -33 152 -33 138 1 204 43 305 199 82 126
137 166 227 166 124 0 206 34 248 102 78 129 -26 367 -218 494 -111 74 -284
113 -422 94z"/>
<path d="M4443 6403 c-27 -5 -71 -55 -80 -91 -9 -36 17 -101 50 -126 35 -26
99 -26 135 1 15 11 36 37 46 58 17 35 18 42 5 78 -22 63 -85 96 -156 80z"/>
</g>
</svg>
